<mxfile host="app.diagrams.net" agent="Mozilla/5.0 (Windows NT 10.0; Win64; x64) AppleWebKit/537.36 (KHTML, like Gecko) Chrome/131.0.0.0 Safari/537.36 Edg/131.0.0.0" version="25.0.3">
  <diagram name="Page-1" id="SfDsIc-fCBHQtDxoXq4T">
    <mxGraphModel dx="1050" dy="679" grid="1" gridSize="10" guides="1" tooltips="1" connect="1" arrows="1" fold="1" page="1" pageScale="1" pageWidth="850" pageHeight="1100" math="0" shadow="0">
      <root>
        <mxCell id="0" />
        <mxCell id="1" parent="0" />
        <mxCell id="A3WCrJtBJiMgD0JYCP4l-4" value="" style="rounded=1;whiteSpace=wrap;html=1;strokeWidth=5;strokeColor=none;gradientColor=none;fillStyle=solid;fillColor=#FFFFFF;" parent="1" vertex="1">
          <mxGeometry x="120" y="720" width="450" height="450" as="geometry" />
        </mxCell>
        <mxCell id="Y8YEd_8xK8rn0x26Noog-42" style="edgeStyle=none;rounded=0;orthogonalLoop=1;jettySize=auto;html=1;exitX=1;exitY=1;exitDx=0;exitDy=0;entryX=0;entryY=0.5;entryDx=0;entryDy=0;endArrow=none;endFill=0;" parent="1" source="Y8YEd_8xK8rn0x26Noog-1" target="Y8YEd_8xK8rn0x26Noog-7" edge="1">
          <mxGeometry relative="1" as="geometry" />
        </mxCell>
        <mxCell id="Y8YEd_8xK8rn0x26Noog-47" style="edgeStyle=none;rounded=0;orthogonalLoop=1;jettySize=auto;html=1;exitX=1;exitY=1;exitDx=0;exitDy=0;entryX=0;entryY=1;entryDx=0;entryDy=0;endArrow=none;endFill=0;" parent="1" source="Y8YEd_8xK8rn0x26Noog-1" target="Y8YEd_8xK8rn0x26Noog-5" edge="1">
          <mxGeometry relative="1" as="geometry" />
        </mxCell>
        <mxCell id="Y8YEd_8xK8rn0x26Noog-50" style="edgeStyle=none;rounded=0;orthogonalLoop=1;jettySize=auto;html=1;exitX=1;exitY=1;exitDx=0;exitDy=0;entryX=0;entryY=0;entryDx=0;entryDy=0;endArrow=none;endFill=0;" parent="1" source="Y8YEd_8xK8rn0x26Noog-1" target="Y8YEd_8xK8rn0x26Noog-6" edge="1">
          <mxGeometry relative="1" as="geometry" />
        </mxCell>
        <mxCell id="Y8YEd_8xK8rn0x26Noog-1" value="" style="ellipse;whiteSpace=wrap;html=1;aspect=fixed;fillStyle=solid;fillColor=#333333;" parent="1" vertex="1">
          <mxGeometry x="210" y="130" width="20" height="20" as="geometry" />
        </mxCell>
        <mxCell id="Y8YEd_8xK8rn0x26Noog-114" style="edgeStyle=none;rounded=0;orthogonalLoop=1;jettySize=auto;html=1;exitX=1;exitY=0.5;exitDx=0;exitDy=0;entryX=0;entryY=1;entryDx=0;entryDy=0;endArrow=none;endFill=0;strokeWidth=5;" parent="1" source="Y8YEd_8xK8rn0x26Noog-2" target="Y8YEd_8xK8rn0x26Noog-1" edge="1">
          <mxGeometry relative="1" as="geometry" />
        </mxCell>
        <mxCell id="Y8YEd_8xK8rn0x26Noog-115" style="edgeStyle=none;rounded=0;orthogonalLoop=1;jettySize=auto;html=1;exitX=1;exitY=0.5;exitDx=0;exitDy=0;entryX=0;entryY=0.5;entryDx=0;entryDy=0;endArrow=none;endFill=0;" parent="1" source="Y8YEd_8xK8rn0x26Noog-2" target="Y8YEd_8xK8rn0x26Noog-4" edge="1">
          <mxGeometry relative="1" as="geometry" />
        </mxCell>
        <mxCell id="Y8YEd_8xK8rn0x26Noog-116" style="edgeStyle=none;rounded=0;orthogonalLoop=1;jettySize=auto;html=1;exitX=1;exitY=0.5;exitDx=0;exitDy=0;entryX=0;entryY=0;entryDx=0;entryDy=0;endArrow=none;endFill=0;strokeWidth=5;" parent="1" source="Y8YEd_8xK8rn0x26Noog-2" target="Y8YEd_8xK8rn0x26Noog-3" edge="1">
          <mxGeometry relative="1" as="geometry" />
        </mxCell>
        <mxCell id="Y8YEd_8xK8rn0x26Noog-2" value="" style="ellipse;whiteSpace=wrap;html=1;aspect=fixed;fillStyle=solid;fillColor=#333333;" parent="1" vertex="1">
          <mxGeometry x="130" y="210" width="20" height="20" as="geometry" />
        </mxCell>
        <mxCell id="Y8YEd_8xK8rn0x26Noog-44" style="edgeStyle=none;rounded=0;orthogonalLoop=1;jettySize=auto;html=1;exitX=1;exitY=0;exitDx=0;exitDy=0;entryX=0;entryY=0.5;entryDx=0;entryDy=0;endArrow=none;endFill=0;" parent="1" source="Y8YEd_8xK8rn0x26Noog-3" target="Y8YEd_8xK8rn0x26Noog-7" edge="1">
          <mxGeometry relative="1" as="geometry" />
        </mxCell>
        <mxCell id="Y8YEd_8xK8rn0x26Noog-48" style="edgeStyle=none;rounded=0;orthogonalLoop=1;jettySize=auto;html=1;exitX=1;exitY=0;exitDx=0;exitDy=0;entryX=0;entryY=0;entryDx=0;entryDy=0;endArrow=none;endFill=0;" parent="1" source="Y8YEd_8xK8rn0x26Noog-3" target="Y8YEd_8xK8rn0x26Noog-6" edge="1">
          <mxGeometry relative="1" as="geometry" />
        </mxCell>
        <mxCell id="Y8YEd_8xK8rn0x26Noog-49" style="edgeStyle=none;rounded=0;orthogonalLoop=1;jettySize=auto;html=1;exitX=1;exitY=0;exitDx=0;exitDy=0;entryX=0;entryY=1;entryDx=0;entryDy=0;endArrow=none;endFill=0;" parent="1" source="Y8YEd_8xK8rn0x26Noog-3" target="Y8YEd_8xK8rn0x26Noog-5" edge="1">
          <mxGeometry relative="1" as="geometry" />
        </mxCell>
        <mxCell id="Y8YEd_8xK8rn0x26Noog-3" value="" style="ellipse;whiteSpace=wrap;html=1;aspect=fixed;fillStyle=solid;fillColor=#333333;" parent="1" vertex="1">
          <mxGeometry x="210" y="290" width="20" height="20" as="geometry" />
        </mxCell>
        <mxCell id="Y8YEd_8xK8rn0x26Noog-43" style="edgeStyle=none;rounded=0;orthogonalLoop=1;jettySize=auto;html=1;exitX=1;exitY=0.5;exitDx=0;exitDy=0;entryX=0;entryY=1;entryDx=0;entryDy=0;endArrow=none;endFill=0;" parent="1" source="Y8YEd_8xK8rn0x26Noog-4" target="Y8YEd_8xK8rn0x26Noog-5" edge="1">
          <mxGeometry relative="1" as="geometry" />
        </mxCell>
        <mxCell id="Y8YEd_8xK8rn0x26Noog-45" style="edgeStyle=none;rounded=0;orthogonalLoop=1;jettySize=auto;html=1;exitX=1;exitY=0.5;exitDx=0;exitDy=0;entryX=0;entryY=0;entryDx=0;entryDy=0;endArrow=none;endFill=0;" parent="1" source="Y8YEd_8xK8rn0x26Noog-4" target="Y8YEd_8xK8rn0x26Noog-6" edge="1">
          <mxGeometry relative="1" as="geometry" />
        </mxCell>
        <mxCell id="Y8YEd_8xK8rn0x26Noog-46" style="edgeStyle=none;rounded=0;orthogonalLoop=1;jettySize=auto;html=1;exitX=1;exitY=0.5;exitDx=0;exitDy=0;endArrow=none;endFill=0;entryX=0;entryY=0.5;entryDx=0;entryDy=0;" parent="1" source="Y8YEd_8xK8rn0x26Noog-4" target="Y8YEd_8xK8rn0x26Noog-7" edge="1">
          <mxGeometry relative="1" as="geometry">
            <mxPoint x="280" y="214.8571428571429" as="targetPoint" />
          </mxGeometry>
        </mxCell>
        <mxCell id="Y8YEd_8xK8rn0x26Noog-4" value="" style="ellipse;whiteSpace=wrap;html=1;aspect=fixed;" parent="1" vertex="1">
          <mxGeometry x="210" y="210" width="20" height="20" as="geometry" />
        </mxCell>
        <mxCell id="Y8YEd_8xK8rn0x26Noog-5" value="" style="ellipse;whiteSpace=wrap;html=1;aspect=fixed;" parent="1" vertex="1">
          <mxGeometry x="290" y="130" width="20" height="20" as="geometry" />
        </mxCell>
        <mxCell id="Y8YEd_8xK8rn0x26Noog-6" value="" style="ellipse;whiteSpace=wrap;html=1;aspect=fixed;fillStyle=solid;fillColor=#333333;" parent="1" vertex="1">
          <mxGeometry x="290" y="290" width="20" height="20" as="geometry" />
        </mxCell>
        <mxCell id="Y8YEd_8xK8rn0x26Noog-7" value="" style="ellipse;whiteSpace=wrap;html=1;aspect=fixed;" parent="1" vertex="1">
          <mxGeometry x="290" y="210" width="20" height="20" as="geometry" />
        </mxCell>
        <mxCell id="Y8YEd_8xK8rn0x26Noog-66" style="edgeStyle=none;rounded=0;orthogonalLoop=1;jettySize=auto;html=1;exitX=1;exitY=1;exitDx=0;exitDy=0;entryX=0;entryY=0.5;entryDx=0;entryDy=0;endArrow=none;endFill=0;" parent="1" source="Y8YEd_8xK8rn0x26Noog-5" target="Y8YEd_8xK8rn0x26Noog-77" edge="1">
          <mxGeometry relative="1" as="geometry">
            <mxPoint x="310" y="156" as="sourcePoint" />
          </mxGeometry>
        </mxCell>
        <mxCell id="Y8YEd_8xK8rn0x26Noog-67" style="edgeStyle=none;rounded=0;orthogonalLoop=1;jettySize=auto;html=1;exitX=1;exitY=1;exitDx=0;exitDy=0;entryX=0;entryY=1;entryDx=0;entryDy=0;endArrow=none;endFill=0;" parent="1" source="Y8YEd_8xK8rn0x26Noog-5" target="Y8YEd_8xK8rn0x26Noog-75" edge="1">
          <mxGeometry relative="1" as="geometry">
            <mxPoint x="310" y="156" as="sourcePoint" />
          </mxGeometry>
        </mxCell>
        <mxCell id="Y8YEd_8xK8rn0x26Noog-68" style="edgeStyle=none;rounded=0;orthogonalLoop=1;jettySize=auto;html=1;exitX=1;exitY=1;exitDx=0;exitDy=0;entryX=0;entryY=0;entryDx=0;entryDy=0;endArrow=none;endFill=0;" parent="1" source="Y8YEd_8xK8rn0x26Noog-5" target="Y8YEd_8xK8rn0x26Noog-76" edge="1">
          <mxGeometry relative="1" as="geometry">
            <mxPoint x="310" y="156" as="sourcePoint" />
          </mxGeometry>
        </mxCell>
        <mxCell id="Y8YEd_8xK8rn0x26Noog-69" style="edgeStyle=none;rounded=0;orthogonalLoop=1;jettySize=auto;html=1;exitX=1;exitY=0;exitDx=0;exitDy=0;entryX=0;entryY=0.5;entryDx=0;entryDy=0;endArrow=none;endFill=0;" parent="1" source="Y8YEd_8xK8rn0x26Noog-6" target="Y8YEd_8xK8rn0x26Noog-77" edge="1">
          <mxGeometry relative="1" as="geometry">
            <mxPoint x="310" y="274" as="sourcePoint" />
          </mxGeometry>
        </mxCell>
        <mxCell id="Y8YEd_8xK8rn0x26Noog-70" style="edgeStyle=none;rounded=0;orthogonalLoop=1;jettySize=auto;html=1;exitX=1;exitY=0;exitDx=0;exitDy=0;entryX=0;entryY=0;entryDx=0;entryDy=0;endArrow=none;endFill=0;" parent="1" source="Y8YEd_8xK8rn0x26Noog-6" target="Y8YEd_8xK8rn0x26Noog-76" edge="1">
          <mxGeometry relative="1" as="geometry">
            <mxPoint x="310" y="274" as="sourcePoint" />
          </mxGeometry>
        </mxCell>
        <mxCell id="Y8YEd_8xK8rn0x26Noog-71" style="edgeStyle=none;rounded=0;orthogonalLoop=1;jettySize=auto;html=1;exitX=1;exitY=0;exitDx=0;exitDy=0;entryX=0;entryY=1;entryDx=0;entryDy=0;endArrow=none;endFill=0;" parent="1" source="Y8YEd_8xK8rn0x26Noog-6" target="Y8YEd_8xK8rn0x26Noog-75" edge="1">
          <mxGeometry relative="1" as="geometry">
            <mxPoint x="310" y="274" as="sourcePoint" />
          </mxGeometry>
        </mxCell>
        <mxCell id="Y8YEd_8xK8rn0x26Noog-72" style="edgeStyle=none;rounded=0;orthogonalLoop=1;jettySize=auto;html=1;exitX=1;exitY=0.5;exitDx=0;exitDy=0;entryX=0;entryY=1;entryDx=0;entryDy=0;endArrow=none;endFill=0;" parent="1" source="Y8YEd_8xK8rn0x26Noog-7" target="Y8YEd_8xK8rn0x26Noog-75" edge="1">
          <mxGeometry relative="1" as="geometry">
            <mxPoint x="314" y="215" as="sourcePoint" />
          </mxGeometry>
        </mxCell>
        <mxCell id="Y8YEd_8xK8rn0x26Noog-73" style="edgeStyle=none;rounded=0;orthogonalLoop=1;jettySize=auto;html=1;exitX=1;exitY=0.5;exitDx=0;exitDy=0;entryX=0;entryY=0;entryDx=0;entryDy=0;endArrow=none;endFill=0;" parent="1" source="Y8YEd_8xK8rn0x26Noog-7" target="Y8YEd_8xK8rn0x26Noog-76" edge="1">
          <mxGeometry relative="1" as="geometry">
            <mxPoint x="314" y="215" as="sourcePoint" />
          </mxGeometry>
        </mxCell>
        <mxCell id="Y8YEd_8xK8rn0x26Noog-74" style="edgeStyle=none;rounded=0;orthogonalLoop=1;jettySize=auto;html=1;exitX=1;exitY=0.5;exitDx=0;exitDy=0;endArrow=none;endFill=0;entryX=0;entryY=0.5;entryDx=0;entryDy=0;" parent="1" source="Y8YEd_8xK8rn0x26Noog-7" target="Y8YEd_8xK8rn0x26Noog-77" edge="1">
          <mxGeometry relative="1" as="geometry">
            <mxPoint x="354" y="214.8571428571429" as="targetPoint" />
            <mxPoint x="314" y="215" as="sourcePoint" />
          </mxGeometry>
        </mxCell>
        <mxCell id="Y8YEd_8xK8rn0x26Noog-105" style="edgeStyle=none;rounded=0;orthogonalLoop=1;jettySize=auto;html=1;exitX=1;exitY=1;exitDx=0;exitDy=0;entryX=0;entryY=1;entryDx=0;entryDy=0;endArrow=none;endFill=0;" parent="1" source="Y8YEd_8xK8rn0x26Noog-75" target="Y8YEd_8xK8rn0x26Noog-81" edge="1">
          <mxGeometry relative="1" as="geometry" />
        </mxCell>
        <mxCell id="Y8YEd_8xK8rn0x26Noog-106" style="edgeStyle=none;rounded=0;orthogonalLoop=1;jettySize=auto;html=1;exitX=1;exitY=1;exitDx=0;exitDy=0;entryX=0;entryY=0.5;entryDx=0;entryDy=0;endArrow=none;endFill=0;" parent="1" source="Y8YEd_8xK8rn0x26Noog-75" target="Y8YEd_8xK8rn0x26Noog-89" edge="1">
          <mxGeometry relative="1" as="geometry" />
        </mxCell>
        <mxCell id="Y8YEd_8xK8rn0x26Noog-109" style="edgeStyle=none;rounded=0;orthogonalLoop=1;jettySize=auto;html=1;exitX=1;exitY=1;exitDx=0;exitDy=0;entryX=0;entryY=0;entryDx=0;entryDy=0;endArrow=none;endFill=0;" parent="1" source="Y8YEd_8xK8rn0x26Noog-75" target="Y8YEd_8xK8rn0x26Noog-85" edge="1">
          <mxGeometry relative="1" as="geometry" />
        </mxCell>
        <mxCell id="Y8YEd_8xK8rn0x26Noog-75" value="" style="ellipse;whiteSpace=wrap;html=1;aspect=fixed;" parent="1" vertex="1">
          <mxGeometry x="370" y="130" width="20" height="20" as="geometry" />
        </mxCell>
        <mxCell id="Y8YEd_8xK8rn0x26Noog-110" style="edgeStyle=none;rounded=0;orthogonalLoop=1;jettySize=auto;html=1;exitX=1;exitY=0;exitDx=0;exitDy=0;entryX=0;entryY=0;entryDx=0;entryDy=0;endArrow=none;endFill=0;" parent="1" source="Y8YEd_8xK8rn0x26Noog-76" target="Y8YEd_8xK8rn0x26Noog-85" edge="1">
          <mxGeometry relative="1" as="geometry" />
        </mxCell>
        <mxCell id="Y8YEd_8xK8rn0x26Noog-111" style="edgeStyle=none;rounded=0;orthogonalLoop=1;jettySize=auto;html=1;exitX=1;exitY=0;exitDx=0;exitDy=0;entryX=0;entryY=0.5;entryDx=0;entryDy=0;endArrow=none;endFill=0;" parent="1" source="Y8YEd_8xK8rn0x26Noog-76" target="Y8YEd_8xK8rn0x26Noog-89" edge="1">
          <mxGeometry relative="1" as="geometry" />
        </mxCell>
        <mxCell id="Y8YEd_8xK8rn0x26Noog-113" style="edgeStyle=none;rounded=0;orthogonalLoop=1;jettySize=auto;html=1;exitX=1;exitY=0;exitDx=0;exitDy=0;entryX=0;entryY=1;entryDx=0;entryDy=0;endArrow=none;endFill=0;" parent="1" source="Y8YEd_8xK8rn0x26Noog-76" target="Y8YEd_8xK8rn0x26Noog-81" edge="1">
          <mxGeometry relative="1" as="geometry" />
        </mxCell>
        <mxCell id="Y8YEd_8xK8rn0x26Noog-76" value="" style="ellipse;whiteSpace=wrap;html=1;aspect=fixed;" parent="1" vertex="1">
          <mxGeometry x="370" y="290" width="20" height="20" as="geometry" />
        </mxCell>
        <mxCell id="Y8YEd_8xK8rn0x26Noog-107" style="edgeStyle=none;rounded=0;orthogonalLoop=1;jettySize=auto;html=1;exitX=1;exitY=0.5;exitDx=0;exitDy=0;entryX=0;entryY=0.5;entryDx=0;entryDy=0;endArrow=none;endFill=0;" parent="1" source="Y8YEd_8xK8rn0x26Noog-77" target="Y8YEd_8xK8rn0x26Noog-89" edge="1">
          <mxGeometry relative="1" as="geometry" />
        </mxCell>
        <mxCell id="Y8YEd_8xK8rn0x26Noog-108" style="edgeStyle=none;rounded=0;orthogonalLoop=1;jettySize=auto;html=1;exitX=1;exitY=0.5;exitDx=0;exitDy=0;entryX=0;entryY=1;entryDx=0;entryDy=0;endArrow=none;endFill=0;" parent="1" source="Y8YEd_8xK8rn0x26Noog-77" target="Y8YEd_8xK8rn0x26Noog-81" edge="1">
          <mxGeometry relative="1" as="geometry" />
        </mxCell>
        <mxCell id="Y8YEd_8xK8rn0x26Noog-112" style="edgeStyle=none;rounded=0;orthogonalLoop=1;jettySize=auto;html=1;exitX=1;exitY=0.5;exitDx=0;exitDy=0;entryX=0;entryY=0;entryDx=0;entryDy=0;endArrow=none;endFill=0;" parent="1" source="Y8YEd_8xK8rn0x26Noog-77" target="Y8YEd_8xK8rn0x26Noog-85" edge="1">
          <mxGeometry relative="1" as="geometry" />
        </mxCell>
        <mxCell id="Y8YEd_8xK8rn0x26Noog-77" value="" style="ellipse;whiteSpace=wrap;html=1;aspect=fixed;" parent="1" vertex="1">
          <mxGeometry x="370" y="210" width="20" height="20" as="geometry" />
        </mxCell>
        <mxCell id="Y8YEd_8xK8rn0x26Noog-78" style="edgeStyle=none;rounded=0;orthogonalLoop=1;jettySize=auto;html=1;exitX=1;exitY=1;exitDx=0;exitDy=0;entryX=0;entryY=0.5;entryDx=0;entryDy=0;endArrow=none;endFill=0;" parent="1" source="Y8YEd_8xK8rn0x26Noog-81" target="Y8YEd_8xK8rn0x26Noog-92" edge="1">
          <mxGeometry relative="1" as="geometry" />
        </mxCell>
        <mxCell id="Y8YEd_8xK8rn0x26Noog-79" style="edgeStyle=none;rounded=0;orthogonalLoop=1;jettySize=auto;html=1;exitX=1;exitY=1;exitDx=0;exitDy=0;entryX=0;entryY=1;entryDx=0;entryDy=0;endArrow=none;endFill=0;" parent="1" source="Y8YEd_8xK8rn0x26Noog-81" target="Y8YEd_8xK8rn0x26Noog-90" edge="1">
          <mxGeometry relative="1" as="geometry" />
        </mxCell>
        <mxCell id="Y8YEd_8xK8rn0x26Noog-80" style="edgeStyle=none;rounded=0;orthogonalLoop=1;jettySize=auto;html=1;exitX=1;exitY=1;exitDx=0;exitDy=0;entryX=0;entryY=0;entryDx=0;entryDy=0;endArrow=none;endFill=0;" parent="1" source="Y8YEd_8xK8rn0x26Noog-81" target="Y8YEd_8xK8rn0x26Noog-91" edge="1">
          <mxGeometry relative="1" as="geometry" />
        </mxCell>
        <mxCell id="Y8YEd_8xK8rn0x26Noog-81" value="" style="ellipse;whiteSpace=wrap;html=1;aspect=fixed;fillStyle=solid;fillColor=#333333;" parent="1" vertex="1">
          <mxGeometry x="450" y="130" width="20" height="20" as="geometry" />
        </mxCell>
        <mxCell id="Y8YEd_8xK8rn0x26Noog-82" style="edgeStyle=none;rounded=0;orthogonalLoop=1;jettySize=auto;html=1;exitX=1;exitY=0;exitDx=0;exitDy=0;entryX=0;entryY=0.5;entryDx=0;entryDy=0;endArrow=none;endFill=0;" parent="1" source="Y8YEd_8xK8rn0x26Noog-85" target="Y8YEd_8xK8rn0x26Noog-92" edge="1">
          <mxGeometry relative="1" as="geometry" />
        </mxCell>
        <mxCell id="Y8YEd_8xK8rn0x26Noog-83" style="edgeStyle=none;rounded=0;orthogonalLoop=1;jettySize=auto;html=1;exitX=1;exitY=0;exitDx=0;exitDy=0;entryX=0;entryY=0;entryDx=0;entryDy=0;endArrow=none;endFill=0;" parent="1" source="Y8YEd_8xK8rn0x26Noog-85" target="Y8YEd_8xK8rn0x26Noog-91" edge="1">
          <mxGeometry relative="1" as="geometry" />
        </mxCell>
        <mxCell id="Y8YEd_8xK8rn0x26Noog-84" style="edgeStyle=none;rounded=0;orthogonalLoop=1;jettySize=auto;html=1;exitX=1;exitY=0;exitDx=0;exitDy=0;entryX=0;entryY=1;entryDx=0;entryDy=0;endArrow=none;endFill=0;" parent="1" source="Y8YEd_8xK8rn0x26Noog-85" target="Y8YEd_8xK8rn0x26Noog-90" edge="1">
          <mxGeometry relative="1" as="geometry" />
        </mxCell>
        <mxCell id="Y8YEd_8xK8rn0x26Noog-85" value="" style="ellipse;whiteSpace=wrap;html=1;aspect=fixed;" parent="1" vertex="1">
          <mxGeometry x="450" y="290" width="20" height="20" as="geometry" />
        </mxCell>
        <mxCell id="Y8YEd_8xK8rn0x26Noog-86" style="edgeStyle=none;rounded=0;orthogonalLoop=1;jettySize=auto;html=1;exitX=1;exitY=0.5;exitDx=0;exitDy=0;entryX=0;entryY=1;entryDx=0;entryDy=0;endArrow=none;endFill=0;" parent="1" source="Y8YEd_8xK8rn0x26Noog-89" target="Y8YEd_8xK8rn0x26Noog-90" edge="1">
          <mxGeometry relative="1" as="geometry" />
        </mxCell>
        <mxCell id="Y8YEd_8xK8rn0x26Noog-87" style="edgeStyle=none;rounded=0;orthogonalLoop=1;jettySize=auto;html=1;exitX=1;exitY=0.5;exitDx=0;exitDy=0;entryX=0;entryY=0;entryDx=0;entryDy=0;endArrow=none;endFill=0;" parent="1" source="Y8YEd_8xK8rn0x26Noog-89" target="Y8YEd_8xK8rn0x26Noog-91" edge="1">
          <mxGeometry relative="1" as="geometry" />
        </mxCell>
        <mxCell id="Y8YEd_8xK8rn0x26Noog-88" style="edgeStyle=none;rounded=0;orthogonalLoop=1;jettySize=auto;html=1;exitX=1;exitY=0.5;exitDx=0;exitDy=0;endArrow=none;endFill=0;entryX=0;entryY=0.5;entryDx=0;entryDy=0;" parent="1" source="Y8YEd_8xK8rn0x26Noog-89" target="Y8YEd_8xK8rn0x26Noog-92" edge="1">
          <mxGeometry relative="1" as="geometry">
            <mxPoint x="520" y="214.8571428571429" as="targetPoint" />
          </mxGeometry>
        </mxCell>
        <mxCell id="Y8YEd_8xK8rn0x26Noog-89" value="" style="ellipse;whiteSpace=wrap;html=1;aspect=fixed;" parent="1" vertex="1">
          <mxGeometry x="450" y="210" width="20" height="20" as="geometry" />
        </mxCell>
        <mxCell id="Y8YEd_8xK8rn0x26Noog-90" value="" style="ellipse;whiteSpace=wrap;html=1;aspect=fixed;fillStyle=solid;fillColor=#333333;" parent="1" vertex="1">
          <mxGeometry x="530" y="130" width="20" height="20" as="geometry" />
        </mxCell>
        <mxCell id="Y8YEd_8xK8rn0x26Noog-91" value="" style="ellipse;whiteSpace=wrap;html=1;aspect=fixed;fillStyle=solid;fillColor=#333333;" parent="1" vertex="1">
          <mxGeometry x="530" y="290" width="20" height="20" as="geometry" />
        </mxCell>
        <mxCell id="Y8YEd_8xK8rn0x26Noog-92" value="" style="ellipse;whiteSpace=wrap;html=1;aspect=fixed;" parent="1" vertex="1">
          <mxGeometry x="530" y="210" width="20" height="20" as="geometry" />
        </mxCell>
        <mxCell id="Y8YEd_8xK8rn0x26Noog-93" style="edgeStyle=none;rounded=0;orthogonalLoop=1;jettySize=auto;html=1;exitX=1;exitY=1;exitDx=0;exitDy=0;entryX=0;entryY=0.5;entryDx=0;entryDy=0;endArrow=none;endFill=0;strokeWidth=5;" parent="1" source="Y8YEd_8xK8rn0x26Noog-90" target="Y8YEd_8xK8rn0x26Noog-104" edge="1">
          <mxGeometry relative="1" as="geometry">
            <mxPoint x="550" y="156" as="sourcePoint" />
          </mxGeometry>
        </mxCell>
        <mxCell id="Y8YEd_8xK8rn0x26Noog-96" style="edgeStyle=none;rounded=0;orthogonalLoop=1;jettySize=auto;html=1;exitX=1;exitY=0;exitDx=0;exitDy=0;entryX=0;entryY=0.5;entryDx=0;entryDy=0;endArrow=none;endFill=0;strokeWidth=5;" parent="1" source="Y8YEd_8xK8rn0x26Noog-91" target="Y8YEd_8xK8rn0x26Noog-104" edge="1">
          <mxGeometry relative="1" as="geometry">
            <mxPoint x="550" y="274" as="sourcePoint" />
          </mxGeometry>
        </mxCell>
        <mxCell id="Y8YEd_8xK8rn0x26Noog-101" style="edgeStyle=none;rounded=0;orthogonalLoop=1;jettySize=auto;html=1;exitX=1;exitY=0.5;exitDx=0;exitDy=0;endArrow=none;endFill=0;entryX=0;entryY=0.5;entryDx=0;entryDy=0;" parent="1" source="Y8YEd_8xK8rn0x26Noog-92" target="Y8YEd_8xK8rn0x26Noog-104" edge="1">
          <mxGeometry relative="1" as="geometry">
            <mxPoint x="594" y="214.8571428571429" as="targetPoint" />
            <mxPoint x="554" y="215" as="sourcePoint" />
          </mxGeometry>
        </mxCell>
        <mxCell id="Y8YEd_8xK8rn0x26Noog-104" value="" style="ellipse;whiteSpace=wrap;html=1;aspect=fixed;fillStyle=solid;fillColor=#333333;" parent="1" vertex="1">
          <mxGeometry x="610" y="210" width="20" height="20" as="geometry" />
        </mxCell>
        <mxCell id="Y8YEd_8xK8rn0x26Noog-149" style="edgeStyle=none;rounded=0;orthogonalLoop=1;jettySize=auto;html=1;exitX=1;exitY=0;exitDx=0;exitDy=0;entryX=0;entryY=1;entryDx=0;entryDy=0;endArrow=none;endFill=0;strokeWidth=5;" parent="1" source="Y8YEd_8xK8rn0x26Noog-6" target="Y8YEd_8xK8rn0x26Noog-81" edge="1">
          <mxGeometry relative="1" as="geometry" />
        </mxCell>
        <mxCell id="qts4YIKVwKViADoNBH5a-1" style="edgeStyle=none;rounded=0;orthogonalLoop=1;jettySize=auto;html=1;exitX=1;exitY=1;exitDx=0;exitDy=0;entryX=0;entryY=0;entryDx=0;entryDy=0;endArrow=none;endFill=0;" parent="1" source="qts4YIKVwKViADoNBH5a-4" target="qts4YIKVwKViADoNBH5a-19" edge="1">
          <mxGeometry relative="1" as="geometry" />
        </mxCell>
        <mxCell id="qts4YIKVwKViADoNBH5a-2" style="edgeStyle=none;rounded=0;orthogonalLoop=1;jettySize=auto;html=1;exitX=1;exitY=0.5;exitDx=0;exitDy=0;entryX=0;entryY=0.5;entryDx=0;entryDy=0;endArrow=none;endFill=0;" parent="1" source="qts4YIKVwKViADoNBH5a-4" target="qts4YIKVwKViADoNBH5a-17" edge="1">
          <mxGeometry relative="1" as="geometry" />
        </mxCell>
        <mxCell id="qts4YIKVwKViADoNBH5a-3" style="edgeStyle=none;rounded=0;orthogonalLoop=1;jettySize=auto;html=1;exitX=1;exitY=1;exitDx=0;exitDy=0;entryX=0;entryY=0;entryDx=0;entryDy=0;endArrow=none;endFill=0;" parent="1" source="qts4YIKVwKViADoNBH5a-4" target="qts4YIKVwKViADoNBH5a-18" edge="1">
          <mxGeometry relative="1" as="geometry" />
        </mxCell>
        <mxCell id="qts4YIKVwKViADoNBH5a-4" value="" style="ellipse;whiteSpace=wrap;html=1;aspect=fixed;fillStyle=solid;fillColor=#333333;" parent="1" vertex="1">
          <mxGeometry x="210" y="370" width="20" height="20" as="geometry" />
        </mxCell>
        <mxCell id="qts4YIKVwKViADoNBH5a-5" style="edgeStyle=none;rounded=0;orthogonalLoop=1;jettySize=auto;html=1;exitX=1;exitY=0.5;exitDx=0;exitDy=0;entryX=0;entryY=1;entryDx=0;entryDy=0;endArrow=none;endFill=0;strokeWidth=5;" parent="1" source="qts4YIKVwKViADoNBH5a-8" target="qts4YIKVwKViADoNBH5a-4" edge="1">
          <mxGeometry relative="1" as="geometry" />
        </mxCell>
        <mxCell id="qts4YIKVwKViADoNBH5a-6" style="edgeStyle=none;rounded=0;orthogonalLoop=1;jettySize=auto;html=1;exitX=1;exitY=0.5;exitDx=0;exitDy=0;entryX=0;entryY=0.5;entryDx=0;entryDy=0;endArrow=none;endFill=0;" parent="1" source="qts4YIKVwKViADoNBH5a-8" target="qts4YIKVwKViADoNBH5a-16" edge="1">
          <mxGeometry relative="1" as="geometry" />
        </mxCell>
        <mxCell id="qts4YIKVwKViADoNBH5a-7" style="edgeStyle=none;rounded=0;orthogonalLoop=1;jettySize=auto;html=1;exitX=1;exitY=0.5;exitDx=0;exitDy=0;entryX=0;entryY=0;entryDx=0;entryDy=0;endArrow=none;endFill=0;strokeWidth=5;" parent="1" source="qts4YIKVwKViADoNBH5a-8" target="qts4YIKVwKViADoNBH5a-12" edge="1">
          <mxGeometry relative="1" as="geometry" />
        </mxCell>
        <mxCell id="qts4YIKVwKViADoNBH5a-8" value="" style="ellipse;whiteSpace=wrap;html=1;aspect=fixed;fillStyle=solid;fillColor=#333333;" parent="1" vertex="1">
          <mxGeometry x="130" y="450" width="20" height="20" as="geometry" />
        </mxCell>
        <mxCell id="qts4YIKVwKViADoNBH5a-9" style="edgeStyle=none;rounded=0;orthogonalLoop=1;jettySize=auto;html=1;exitX=1;exitY=0;exitDx=0;exitDy=0;entryX=0;entryY=1;entryDx=0;entryDy=0;endArrow=none;endFill=0;" parent="1" source="qts4YIKVwKViADoNBH5a-12" target="qts4YIKVwKViADoNBH5a-19" edge="1">
          <mxGeometry relative="1" as="geometry" />
        </mxCell>
        <mxCell id="qts4YIKVwKViADoNBH5a-10" style="edgeStyle=none;rounded=0;orthogonalLoop=1;jettySize=auto;html=1;exitX=1;exitY=0.5;exitDx=0;exitDy=0;entryX=0;entryY=0.5;entryDx=0;entryDy=0;endArrow=none;endFill=0;" parent="1" source="qts4YIKVwKViADoNBH5a-12" target="qts4YIKVwKViADoNBH5a-18" edge="1">
          <mxGeometry relative="1" as="geometry" />
        </mxCell>
        <mxCell id="qts4YIKVwKViADoNBH5a-11" style="edgeStyle=none;rounded=0;orthogonalLoop=1;jettySize=auto;html=1;exitX=1;exitY=0;exitDx=0;exitDy=0;entryX=0;entryY=1;entryDx=0;entryDy=0;endArrow=none;endFill=0;" parent="1" source="qts4YIKVwKViADoNBH5a-12" target="qts4YIKVwKViADoNBH5a-17" edge="1">
          <mxGeometry relative="1" as="geometry" />
        </mxCell>
        <mxCell id="qts4YIKVwKViADoNBH5a-12" value="" style="ellipse;whiteSpace=wrap;html=1;aspect=fixed;fillStyle=solid;fillColor=#333333;" parent="1" vertex="1">
          <mxGeometry x="210" y="530" width="20" height="20" as="geometry" />
        </mxCell>
        <mxCell id="qts4YIKVwKViADoNBH5a-13" style="edgeStyle=none;rounded=0;orthogonalLoop=1;jettySize=auto;html=1;exitX=1;exitY=0;exitDx=0;exitDy=0;entryX=0;entryY=1;entryDx=0;entryDy=0;endArrow=none;endFill=0;" parent="1" source="qts4YIKVwKViADoNBH5a-16" target="qts4YIKVwKViADoNBH5a-17" edge="1">
          <mxGeometry relative="1" as="geometry" />
        </mxCell>
        <mxCell id="qts4YIKVwKViADoNBH5a-14" style="edgeStyle=none;rounded=0;orthogonalLoop=1;jettySize=auto;html=1;exitX=1;exitY=1;exitDx=0;exitDy=0;entryX=0;entryY=0;entryDx=0;entryDy=0;endArrow=none;endFill=0;" parent="1" source="qts4YIKVwKViADoNBH5a-16" target="qts4YIKVwKViADoNBH5a-18" edge="1">
          <mxGeometry relative="1" as="geometry" />
        </mxCell>
        <mxCell id="qts4YIKVwKViADoNBH5a-15" style="edgeStyle=none;rounded=0;orthogonalLoop=1;jettySize=auto;html=1;exitX=1;exitY=0.5;exitDx=0;exitDy=0;endArrow=none;endFill=0;entryX=0;entryY=0.5;entryDx=0;entryDy=0;" parent="1" source="qts4YIKVwKViADoNBH5a-16" target="qts4YIKVwKViADoNBH5a-19" edge="1">
          <mxGeometry relative="1" as="geometry">
            <mxPoint x="280" y="454.8571428571429" as="targetPoint" />
          </mxGeometry>
        </mxCell>
        <mxCell id="qts4YIKVwKViADoNBH5a-16" value="" style="ellipse;whiteSpace=wrap;html=1;aspect=fixed;" parent="1" vertex="1">
          <mxGeometry x="210" y="450" width="20" height="20" as="geometry" />
        </mxCell>
        <mxCell id="qts4YIKVwKViADoNBH5a-17" value="" style="ellipse;whiteSpace=wrap;html=1;aspect=fixed;" parent="1" vertex="1">
          <mxGeometry x="290" y="370" width="20" height="20" as="geometry" />
        </mxCell>
        <mxCell id="qts4YIKVwKViADoNBH5a-18" value="" style="ellipse;whiteSpace=wrap;html=1;aspect=fixed;fillStyle=solid;fillColor=#333333;" parent="1" vertex="1">
          <mxGeometry x="290" y="530" width="20" height="20" as="geometry" />
        </mxCell>
        <mxCell id="qts4YIKVwKViADoNBH5a-19" value="" style="ellipse;whiteSpace=wrap;html=1;aspect=fixed;" parent="1" vertex="1">
          <mxGeometry x="290" y="450" width="20" height="20" as="geometry" />
        </mxCell>
        <mxCell id="qts4YIKVwKViADoNBH5a-20" style="edgeStyle=none;rounded=0;orthogonalLoop=1;jettySize=auto;html=1;exitX=1;exitY=1;exitDx=0;exitDy=0;entryX=0;entryY=0;entryDx=0;entryDy=0;endArrow=none;endFill=0;" parent="1" source="qts4YIKVwKViADoNBH5a-17" target="qts4YIKVwKViADoNBH5a-40" edge="1">
          <mxGeometry relative="1" as="geometry">
            <mxPoint x="310" y="396" as="sourcePoint" />
          </mxGeometry>
        </mxCell>
        <mxCell id="qts4YIKVwKViADoNBH5a-21" style="edgeStyle=none;rounded=0;orthogonalLoop=1;jettySize=auto;html=1;exitX=1;exitY=0.5;exitDx=0;exitDy=0;entryX=0;entryY=0.5;entryDx=0;entryDy=0;endArrow=none;endFill=0;" parent="1" source="qts4YIKVwKViADoNBH5a-17" target="qts4YIKVwKViADoNBH5a-32" edge="1">
          <mxGeometry relative="1" as="geometry">
            <mxPoint x="310" y="396" as="sourcePoint" />
          </mxGeometry>
        </mxCell>
        <mxCell id="qts4YIKVwKViADoNBH5a-22" style="edgeStyle=none;rounded=0;orthogonalLoop=1;jettySize=auto;html=1;exitX=1;exitY=1;exitDx=0;exitDy=0;entryX=0;entryY=0;entryDx=0;entryDy=0;endArrow=none;endFill=0;" parent="1" source="qts4YIKVwKViADoNBH5a-17" target="qts4YIKVwKViADoNBH5a-36" edge="1">
          <mxGeometry relative="1" as="geometry">
            <mxPoint x="310" y="396" as="sourcePoint" />
          </mxGeometry>
        </mxCell>
        <mxCell id="qts4YIKVwKViADoNBH5a-23" style="edgeStyle=none;rounded=0;orthogonalLoop=1;jettySize=auto;html=1;exitX=1;exitY=0;exitDx=0;exitDy=0;entryX=0;entryY=1;entryDx=0;entryDy=0;endArrow=none;endFill=0;" parent="1" source="qts4YIKVwKViADoNBH5a-18" target="qts4YIKVwKViADoNBH5a-40" edge="1">
          <mxGeometry relative="1" as="geometry">
            <mxPoint x="310" y="514" as="sourcePoint" />
          </mxGeometry>
        </mxCell>
        <mxCell id="qts4YIKVwKViADoNBH5a-24" style="edgeStyle=none;rounded=0;orthogonalLoop=1;jettySize=auto;html=1;exitX=1;exitY=0.5;exitDx=0;exitDy=0;entryX=0;entryY=0.5;entryDx=0;entryDy=0;endArrow=none;endFill=0;" parent="1" source="qts4YIKVwKViADoNBH5a-18" target="qts4YIKVwKViADoNBH5a-36" edge="1">
          <mxGeometry relative="1" as="geometry">
            <mxPoint x="310" y="514" as="sourcePoint" />
          </mxGeometry>
        </mxCell>
        <mxCell id="qts4YIKVwKViADoNBH5a-25" style="edgeStyle=none;rounded=0;orthogonalLoop=1;jettySize=auto;html=1;exitX=1;exitY=0;exitDx=0;exitDy=0;entryX=0;entryY=1;entryDx=0;entryDy=0;endArrow=none;endFill=0;strokeWidth=5;" parent="1" source="qts4YIKVwKViADoNBH5a-18" target="qts4YIKVwKViADoNBH5a-32" edge="1">
          <mxGeometry relative="1" as="geometry">
            <mxPoint x="310" y="514" as="sourcePoint" />
          </mxGeometry>
        </mxCell>
        <mxCell id="qts4YIKVwKViADoNBH5a-26" style="edgeStyle=none;rounded=0;orthogonalLoop=1;jettySize=auto;html=1;exitX=1;exitY=0;exitDx=0;exitDy=0;entryX=0;entryY=1;entryDx=0;entryDy=0;endArrow=none;endFill=0;" parent="1" source="qts4YIKVwKViADoNBH5a-19" target="qts4YIKVwKViADoNBH5a-32" edge="1">
          <mxGeometry relative="1" as="geometry">
            <mxPoint x="314" y="455" as="sourcePoint" />
          </mxGeometry>
        </mxCell>
        <mxCell id="qts4YIKVwKViADoNBH5a-27" style="edgeStyle=none;rounded=0;orthogonalLoop=1;jettySize=auto;html=1;exitX=1;exitY=1;exitDx=0;exitDy=0;entryX=0;entryY=0;entryDx=0;entryDy=0;endArrow=none;endFill=0;" parent="1" source="qts4YIKVwKViADoNBH5a-19" target="qts4YIKVwKViADoNBH5a-36" edge="1">
          <mxGeometry relative="1" as="geometry">
            <mxPoint x="314" y="455" as="sourcePoint" />
          </mxGeometry>
        </mxCell>
        <mxCell id="qts4YIKVwKViADoNBH5a-28" style="edgeStyle=none;rounded=0;orthogonalLoop=1;jettySize=auto;html=1;exitX=1;exitY=0.5;exitDx=0;exitDy=0;endArrow=none;endFill=0;entryX=0;entryY=0.5;entryDx=0;entryDy=0;" parent="1" source="qts4YIKVwKViADoNBH5a-19" target="qts4YIKVwKViADoNBH5a-40" edge="1">
          <mxGeometry relative="1" as="geometry">
            <mxPoint x="354" y="454.8571428571429" as="targetPoint" />
            <mxPoint x="314" y="455" as="sourcePoint" />
          </mxGeometry>
        </mxCell>
        <mxCell id="qts4YIKVwKViADoNBH5a-29" style="edgeStyle=none;rounded=0;orthogonalLoop=1;jettySize=auto;html=1;exitX=1;exitY=0.5;exitDx=0;exitDy=0;entryX=0;entryY=0.5;entryDx=0;entryDy=0;endArrow=none;endFill=0;" parent="1" source="qts4YIKVwKViADoNBH5a-32" target="qts4YIKVwKViADoNBH5a-44" edge="1">
          <mxGeometry relative="1" as="geometry" />
        </mxCell>
        <mxCell id="qts4YIKVwKViADoNBH5a-30" style="edgeStyle=none;rounded=0;orthogonalLoop=1;jettySize=auto;html=1;exitX=1;exitY=1;exitDx=0;exitDy=0;entryX=0;entryY=0;entryDx=0;entryDy=0;endArrow=none;endFill=0;" parent="1" source="qts4YIKVwKViADoNBH5a-32" target="qts4YIKVwKViADoNBH5a-52" edge="1">
          <mxGeometry relative="1" as="geometry" />
        </mxCell>
        <mxCell id="qts4YIKVwKViADoNBH5a-31" style="edgeStyle=none;rounded=0;orthogonalLoop=1;jettySize=auto;html=1;exitX=1;exitY=1;exitDx=0;exitDy=0;entryX=0;entryY=0;entryDx=0;entryDy=0;endArrow=none;endFill=0;" parent="1" source="qts4YIKVwKViADoNBH5a-32" target="qts4YIKVwKViADoNBH5a-48" edge="1">
          <mxGeometry relative="1" as="geometry" />
        </mxCell>
        <mxCell id="qts4YIKVwKViADoNBH5a-32" value="" style="ellipse;whiteSpace=wrap;html=1;aspect=fixed;fillStyle=solid;fillColor=#333333;" parent="1" vertex="1">
          <mxGeometry x="370" y="370" width="20" height="20" as="geometry" />
        </mxCell>
        <mxCell id="qts4YIKVwKViADoNBH5a-33" style="edgeStyle=none;rounded=0;orthogonalLoop=1;jettySize=auto;html=1;exitX=1;exitY=0.5;exitDx=0;exitDy=0;entryX=0;entryY=0.5;entryDx=0;entryDy=0;endArrow=none;endFill=0;" parent="1" source="qts4YIKVwKViADoNBH5a-36" target="qts4YIKVwKViADoNBH5a-48" edge="1">
          <mxGeometry relative="1" as="geometry" />
        </mxCell>
        <mxCell id="qts4YIKVwKViADoNBH5a-34" style="edgeStyle=none;rounded=0;orthogonalLoop=1;jettySize=auto;html=1;exitX=1;exitY=0;exitDx=0;exitDy=0;entryX=0;entryY=1;entryDx=0;entryDy=0;endArrow=none;endFill=0;" parent="1" source="qts4YIKVwKViADoNBH5a-36" target="qts4YIKVwKViADoNBH5a-52" edge="1">
          <mxGeometry relative="1" as="geometry" />
        </mxCell>
        <mxCell id="qts4YIKVwKViADoNBH5a-35" style="edgeStyle=none;rounded=0;orthogonalLoop=1;jettySize=auto;html=1;exitX=1;exitY=0;exitDx=0;exitDy=0;entryX=0;entryY=1;entryDx=0;entryDy=0;endArrow=none;endFill=0;" parent="1" source="qts4YIKVwKViADoNBH5a-36" target="qts4YIKVwKViADoNBH5a-44" edge="1">
          <mxGeometry relative="1" as="geometry" />
        </mxCell>
        <mxCell id="qts4YIKVwKViADoNBH5a-36" value="" style="ellipse;whiteSpace=wrap;html=1;aspect=fixed;" parent="1" vertex="1">
          <mxGeometry x="370" y="530" width="20" height="20" as="geometry" />
        </mxCell>
        <mxCell id="qts4YIKVwKViADoNBH5a-37" style="edgeStyle=none;rounded=0;orthogonalLoop=1;jettySize=auto;html=1;exitX=1;exitY=0.5;exitDx=0;exitDy=0;entryX=0;entryY=0.5;entryDx=0;entryDy=0;endArrow=none;endFill=0;" parent="1" source="qts4YIKVwKViADoNBH5a-40" target="qts4YIKVwKViADoNBH5a-52" edge="1">
          <mxGeometry relative="1" as="geometry" />
        </mxCell>
        <mxCell id="qts4YIKVwKViADoNBH5a-38" style="edgeStyle=none;rounded=0;orthogonalLoop=1;jettySize=auto;html=1;exitX=1;exitY=0;exitDx=0;exitDy=0;entryX=0;entryY=1;entryDx=0;entryDy=0;endArrow=none;endFill=0;" parent="1" source="qts4YIKVwKViADoNBH5a-40" target="qts4YIKVwKViADoNBH5a-44" edge="1">
          <mxGeometry relative="1" as="geometry" />
        </mxCell>
        <mxCell id="qts4YIKVwKViADoNBH5a-39" style="edgeStyle=none;rounded=0;orthogonalLoop=1;jettySize=auto;html=1;exitX=1;exitY=1;exitDx=0;exitDy=0;entryX=0;entryY=0;entryDx=0;entryDy=0;endArrow=none;endFill=0;" parent="1" source="qts4YIKVwKViADoNBH5a-40" target="qts4YIKVwKViADoNBH5a-48" edge="1">
          <mxGeometry relative="1" as="geometry" />
        </mxCell>
        <mxCell id="qts4YIKVwKViADoNBH5a-40" value="" style="ellipse;whiteSpace=wrap;html=1;aspect=fixed;" parent="1" vertex="1">
          <mxGeometry x="370" y="450" width="20" height="20" as="geometry" />
        </mxCell>
        <mxCell id="qts4YIKVwKViADoNBH5a-41" style="edgeStyle=none;rounded=0;orthogonalLoop=1;jettySize=auto;html=1;exitX=1;exitY=1;exitDx=0;exitDy=0;entryX=0;entryY=0.5;entryDx=0;entryDy=0;endArrow=none;endFill=0;strokeWidth=5;" parent="1" source="qts4YIKVwKViADoNBH5a-44" target="qts4YIKVwKViADoNBH5a-55" edge="1">
          <mxGeometry relative="1" as="geometry" />
        </mxCell>
        <mxCell id="qts4YIKVwKViADoNBH5a-44" value="" style="ellipse;whiteSpace=wrap;html=1;aspect=fixed;fillStyle=auto;fillColor=#333333;" parent="1" vertex="1">
          <mxGeometry x="450" y="370" width="20" height="20" as="geometry" />
        </mxCell>
        <mxCell id="qts4YIKVwKViADoNBH5a-45" style="edgeStyle=none;rounded=0;orthogonalLoop=1;jettySize=auto;html=1;exitX=1;exitY=0;exitDx=0;exitDy=0;entryX=0;entryY=0.5;entryDx=0;entryDy=0;endArrow=none;endFill=0;strokeWidth=5;" parent="1" source="qts4YIKVwKViADoNBH5a-48" target="qts4YIKVwKViADoNBH5a-55" edge="1">
          <mxGeometry relative="1" as="geometry" />
        </mxCell>
        <mxCell id="qts4YIKVwKViADoNBH5a-48" value="" style="ellipse;whiteSpace=wrap;html=1;aspect=fixed;fillColor=#333333;" parent="1" vertex="1">
          <mxGeometry x="450" y="530" width="20" height="20" as="geometry" />
        </mxCell>
        <mxCell id="qts4YIKVwKViADoNBH5a-51" style="edgeStyle=none;rounded=0;orthogonalLoop=1;jettySize=auto;html=1;exitX=1;exitY=0.5;exitDx=0;exitDy=0;endArrow=none;endFill=0;entryX=0;entryY=0.5;entryDx=0;entryDy=0;" parent="1" source="qts4YIKVwKViADoNBH5a-52" target="qts4YIKVwKViADoNBH5a-55" edge="1">
          <mxGeometry relative="1" as="geometry">
            <mxPoint x="520" y="454.8571428571429" as="targetPoint" />
          </mxGeometry>
        </mxCell>
        <mxCell id="qts4YIKVwKViADoNBH5a-52" value="" style="ellipse;whiteSpace=wrap;html=1;aspect=fixed;" parent="1" vertex="1">
          <mxGeometry x="450" y="450" width="20" height="20" as="geometry" />
        </mxCell>
        <mxCell id="qts4YIKVwKViADoNBH5a-55" value="" style="ellipse;whiteSpace=wrap;html=1;aspect=fixed;fillColor=#333333;" parent="1" vertex="1">
          <mxGeometry x="530" y="450" width="20" height="20" as="geometry" />
        </mxCell>
        <mxCell id="qts4YIKVwKViADoNBH5a-61" style="edgeStyle=none;rounded=0;orthogonalLoop=1;jettySize=auto;html=1;exitX=1;exitY=0.5;exitDx=0;exitDy=0;entryX=0;entryY=0.5;entryDx=0;entryDy=0;endArrow=none;endFill=0;strokeColor=#B3B3B3;strokeWidth=2;" parent="1" source="qts4YIKVwKViADoNBH5a-64" target="qts4YIKVwKViADoNBH5a-79" edge="1">
          <mxGeometry relative="1" as="geometry" />
        </mxCell>
        <mxCell id="qts4YIKVwKViADoNBH5a-62" style="edgeStyle=none;rounded=0;orthogonalLoop=1;jettySize=auto;html=1;exitX=1;exitY=0;exitDx=0;exitDy=0;entryX=0;entryY=0.5;entryDx=0;entryDy=0;endArrow=none;endFill=0;strokeColor=#B3B3B3;strokeWidth=2;" parent="1" source="qts4YIKVwKViADoNBH5a-64" target="qts4YIKVwKViADoNBH5a-77" edge="1">
          <mxGeometry relative="1" as="geometry" />
        </mxCell>
        <mxCell id="qts4YIKVwKViADoNBH5a-70" style="edgeStyle=none;rounded=0;orthogonalLoop=1;jettySize=auto;html=1;exitX=1;exitY=1;exitDx=0;exitDy=0;entryX=0;entryY=0.5;entryDx=0;entryDy=0;endArrow=none;endFill=0;strokeColor=#B3B3B3;strokeWidth=2;" parent="1" source="qts4YIKVwKViADoNBH5a-72" target="qts4YIKVwKViADoNBH5a-78" edge="1">
          <mxGeometry relative="1" as="geometry" />
        </mxCell>
        <mxCell id="qts4YIKVwKViADoNBH5a-120" style="rounded=0;orthogonalLoop=1;jettySize=auto;html=1;exitX=1;exitY=0.5;exitDx=0;exitDy=0;entryX=0;entryY=0.5;entryDx=0;entryDy=0;endArrow=none;endFill=0;strokeColor=#B3B3B3;strokeWidth=2;" parent="1" source="qts4YIKVwKViADoNBH5a-72" target="qts4YIKVwKViADoNBH5a-111" edge="1">
          <mxGeometry relative="1" as="geometry" />
        </mxCell>
        <mxCell id="qts4YIKVwKViADoNBH5a-123" style="rounded=0;orthogonalLoop=1;jettySize=auto;html=1;exitX=1;exitY=0;exitDx=0;exitDy=0;entryX=0;entryY=1;entryDx=0;entryDy=0;endArrow=none;endFill=0;strokeColor=#B3B3B3;strokeWidth=2;" parent="1" source="qts4YIKVwKViADoNBH5a-72" target="qts4YIKVwKViADoNBH5a-79" edge="1">
          <mxGeometry relative="1" as="geometry" />
        </mxCell>
        <mxCell id="qts4YIKVwKViADoNBH5a-77" value="" style="ellipse;whiteSpace=wrap;html=1;aspect=fixed;strokeColor=#B3B3B3;strokeWidth=2;fillStyle=solid;fillColor=#B3B3B3;" parent="1" vertex="1">
          <mxGeometry x="290" y="810" width="30" height="30" as="geometry" />
        </mxCell>
        <mxCell id="qts4YIKVwKViADoNBH5a-116" style="rounded=0;orthogonalLoop=1;jettySize=auto;html=1;exitX=1;exitY=0;exitDx=0;exitDy=0;entryX=0;entryY=1;entryDx=0;entryDy=0;endArrow=none;endFill=0;strokeColor=#B3B3B3;strokeWidth=2;" parent="1" source="qts4YIKVwKViADoNBH5a-78" target="qts4YIKVwKViADoNBH5a-112" edge="1">
          <mxGeometry relative="1" as="geometry" />
        </mxCell>
        <mxCell id="qts4YIKVwKViADoNBH5a-117" style="rounded=0;orthogonalLoop=1;jettySize=auto;html=1;exitX=1;exitY=1;exitDx=0;exitDy=0;entryX=0;entryY=0;entryDx=0;entryDy=0;endArrow=none;endFill=0;strokeColor=#B3B3B3;strokeWidth=2;" parent="1" source="qts4YIKVwKViADoNBH5a-79" target="qts4YIKVwKViADoNBH5a-112" edge="1">
          <mxGeometry relative="1" as="geometry" />
        </mxCell>
        <mxCell id="qts4YIKVwKViADoNBH5a-79" value="" style="ellipse;whiteSpace=wrap;html=1;aspect=fixed;strokeColor=#B3B3B3;strokeWidth=2;fillStyle=solid;fillColor=#B3B3B3;" parent="1" vertex="1">
          <mxGeometry x="290" y="890" width="30" height="30" as="geometry" />
        </mxCell>
        <mxCell id="qts4YIKVwKViADoNBH5a-80" style="edgeStyle=none;rounded=0;orthogonalLoop=1;jettySize=auto;html=1;exitX=1;exitY=1;exitDx=0;exitDy=0;entryX=0;entryY=0;entryDx=0;entryDy=0;endArrow=none;endFill=0;strokeColor=#B3B3B3;strokeWidth=2;" parent="1" source="qts4YIKVwKViADoNBH5a-77" target="qts4YIKVwKViADoNBH5a-100" edge="1">
          <mxGeometry relative="1" as="geometry">
            <mxPoint x="310" y="836" as="sourcePoint" />
          </mxGeometry>
        </mxCell>
        <mxCell id="qts4YIKVwKViADoNBH5a-81" style="edgeStyle=none;rounded=0;orthogonalLoop=1;jettySize=auto;html=1;exitX=1;exitY=0.5;exitDx=0;exitDy=0;entryX=0;entryY=0.5;entryDx=0;entryDy=0;endArrow=none;endFill=0;strokeColor=#B3B3B3;strokeWidth=2;" parent="1" source="qts4YIKVwKViADoNBH5a-77" target="qts4YIKVwKViADoNBH5a-92" edge="1">
          <mxGeometry relative="1" as="geometry">
            <mxPoint x="310" y="836" as="sourcePoint" />
          </mxGeometry>
        </mxCell>
        <mxCell id="qts4YIKVwKViADoNBH5a-84" style="edgeStyle=none;rounded=0;orthogonalLoop=1;jettySize=auto;html=1;exitX=1;exitY=0.5;exitDx=0;exitDy=0;entryX=0;entryY=0.5;entryDx=0;entryDy=0;endArrow=none;endFill=0;strokeColor=#B3B3B3;strokeWidth=2;" parent="1" source="qts4YIKVwKViADoNBH5a-78" target="qts4YIKVwKViADoNBH5a-96" edge="1">
          <mxGeometry relative="1" as="geometry">
            <mxPoint x="310" y="954" as="sourcePoint" />
          </mxGeometry>
        </mxCell>
        <mxCell id="qts4YIKVwKViADoNBH5a-86" style="edgeStyle=none;rounded=0;orthogonalLoop=1;jettySize=auto;html=1;exitX=1;exitY=0;exitDx=0;exitDy=0;entryX=0;entryY=1;entryDx=0;entryDy=0;endArrow=none;endFill=0;strokeColor=#B3B3B3;strokeWidth=2;" parent="1" source="qts4YIKVwKViADoNBH5a-79" target="qts4YIKVwKViADoNBH5a-92" edge="1">
          <mxGeometry relative="1" as="geometry">
            <mxPoint x="314" y="895" as="sourcePoint" />
          </mxGeometry>
        </mxCell>
        <mxCell id="qts4YIKVwKViADoNBH5a-88" style="edgeStyle=none;rounded=0;orthogonalLoop=1;jettySize=auto;html=1;exitX=1;exitY=0.5;exitDx=0;exitDy=0;endArrow=none;endFill=0;entryX=0;entryY=0.5;entryDx=0;entryDy=0;strokeColor=#B3B3B3;strokeWidth=2;" parent="1" source="qts4YIKVwKViADoNBH5a-79" target="qts4YIKVwKViADoNBH5a-100" edge="1">
          <mxGeometry relative="1" as="geometry">
            <mxPoint x="354" y="894.8571428571429" as="targetPoint" />
            <mxPoint x="314" y="895" as="sourcePoint" />
          </mxGeometry>
        </mxCell>
        <mxCell id="qts4YIKVwKViADoNBH5a-89" style="edgeStyle=none;rounded=0;orthogonalLoop=1;jettySize=auto;html=1;exitX=1;exitY=0.5;exitDx=0;exitDy=0;entryX=0;entryY=0;entryDx=0;entryDy=0;endArrow=none;endFill=0;strokeColor=#B3B3B3;strokeWidth=2;" parent="1" source="qts4YIKVwKViADoNBH5a-92" target="qts4YIKVwKViADoNBH5a-102" edge="1">
          <mxGeometry relative="1" as="geometry" />
        </mxCell>
        <mxCell id="qts4YIKVwKViADoNBH5a-93" style="edgeStyle=none;rounded=0;orthogonalLoop=1;jettySize=auto;html=1;exitX=1;exitY=0.5;exitDx=0;exitDy=0;entryX=0;entryY=1;entryDx=0;entryDy=0;endArrow=none;endFill=0;strokeColor=#B3B3B3;strokeWidth=2;" parent="1" source="qts4YIKVwKViADoNBH5a-96" target="qts4YIKVwKViADoNBH5a-104" edge="1">
          <mxGeometry relative="1" as="geometry" />
        </mxCell>
        <mxCell id="qts4YIKVwKViADoNBH5a-96" value="" style="ellipse;whiteSpace=wrap;html=1;aspect=fixed;strokeColor=#B3B3B3;strokeWidth=2;fillStyle=solid;fillColor=#B3B3B3;" parent="1" vertex="1">
          <mxGeometry x="370" y="1050" width="30" height="30" as="geometry" />
        </mxCell>
        <mxCell id="qts4YIKVwKViADoNBH5a-98" style="edgeStyle=none;rounded=0;orthogonalLoop=1;jettySize=auto;html=1;exitX=1;exitY=0.5;exitDx=0;exitDy=0;entryX=0;entryY=0.5;entryDx=0;entryDy=0;endArrow=none;endFill=0;strokeColor=#B3B3B3;strokeWidth=2;" parent="1" source="qts4YIKVwKViADoNBH5a-100" target="qts4YIKVwKViADoNBH5a-102" edge="1">
          <mxGeometry relative="1" as="geometry" />
        </mxCell>
        <mxCell id="qts4YIKVwKViADoNBH5a-125" style="rounded=0;orthogonalLoop=1;jettySize=auto;html=1;exitX=1;exitY=1;exitDx=0;exitDy=0;entryX=0;entryY=0;entryDx=0;entryDy=0;endArrow=none;endFill=0;strokeColor=#B3B3B3;strokeWidth=2;" parent="1" source="qts4YIKVwKViADoNBH5a-100" target="qts4YIKVwKViADoNBH5a-104" edge="1">
          <mxGeometry relative="1" as="geometry" />
        </mxCell>
        <mxCell id="qts4YIKVwKViADoNBH5a-100" value="" style="ellipse;whiteSpace=wrap;html=1;aspect=fixed;strokeColor=#B3B3B3;strokeWidth=2;fillStyle=solid;fillColor=#B3B3B3;" parent="1" vertex="1">
          <mxGeometry x="370" y="890" width="30" height="30" as="geometry" />
        </mxCell>
        <mxCell id="qts4YIKVwKViADoNBH5a-113" style="rounded=0;orthogonalLoop=1;jettySize=auto;html=1;exitX=1;exitY=0.5;exitDx=0;exitDy=0;entryX=0;entryY=0.5;entryDx=0;entryDy=0;endArrow=none;endFill=0;strokeColor=#B3B3B3;strokeWidth=2;" parent="1" source="qts4YIKVwKViADoNBH5a-111" target="qts4YIKVwKViADoNBH5a-112" edge="1">
          <mxGeometry relative="1" as="geometry" />
        </mxCell>
        <mxCell id="qts4YIKVwKViADoNBH5a-114" style="rounded=0;orthogonalLoop=1;jettySize=auto;html=1;exitX=1;exitY=0;exitDx=0;exitDy=0;entryX=0;entryY=1;entryDx=0;entryDy=0;endArrow=none;endFill=0;strokeColor=#B3B3B3;strokeWidth=2;" parent="1" source="qts4YIKVwKViADoNBH5a-111" target="qts4YIKVwKViADoNBH5a-100" edge="1">
          <mxGeometry relative="1" as="geometry" />
        </mxCell>
        <mxCell id="qts4YIKVwKViADoNBH5a-115" style="rounded=0;orthogonalLoop=1;jettySize=auto;html=1;exitX=1;exitY=1;exitDx=0;exitDy=0;entryX=0;entryY=0;entryDx=0;entryDy=0;endArrow=none;endFill=0;strokeColor=#B3B3B3;strokeWidth=2;" parent="1" source="qts4YIKVwKViADoNBH5a-111" target="qts4YIKVwKViADoNBH5a-96" edge="1">
          <mxGeometry relative="1" as="geometry" />
        </mxCell>
        <mxCell id="qts4YIKVwKViADoNBH5a-111" value="" style="ellipse;whiteSpace=wrap;html=1;aspect=fixed;strokeColor=#B3B3B3;strokeWidth=2;fillStyle=solid;fillColor=#B3B3B3;" parent="1" vertex="1">
          <mxGeometry x="290" y="970" width="30" height="30" as="geometry" />
        </mxCell>
        <mxCell id="qts4YIKVwKViADoNBH5a-121" style="rounded=0;orthogonalLoop=1;jettySize=auto;html=1;exitX=1;exitY=0.5;exitDx=0;exitDy=0;entryX=0;entryY=0.5;entryDx=0;entryDy=0;endArrow=none;endFill=0;strokeColor=#B3B3B3;strokeWidth=2;" parent="1" source="qts4YIKVwKViADoNBH5a-112" target="qts4YIKVwKViADoNBH5a-104" edge="1">
          <mxGeometry relative="1" as="geometry" />
        </mxCell>
        <mxCell id="qts4YIKVwKViADoNBH5a-126" style="rounded=0;orthogonalLoop=1;jettySize=auto;html=1;exitX=1;exitY=0;exitDx=0;exitDy=0;entryX=0;entryY=1;entryDx=0;entryDy=0;endArrow=none;endFill=0;strokeColor=#B3B3B3;strokeWidth=2;" parent="1" source="qts4YIKVwKViADoNBH5a-112" target="qts4YIKVwKViADoNBH5a-102" edge="1">
          <mxGeometry relative="1" as="geometry" />
        </mxCell>
        <mxCell id="qts4YIKVwKViADoNBH5a-112" value="" style="ellipse;whiteSpace=wrap;html=1;aspect=fixed;strokeColor=#B3B3B3;strokeWidth=2;fillStyle=solid;fillColor=#B3B3B3;" parent="1" vertex="1">
          <mxGeometry x="370" y="970" width="30" height="30" as="geometry" />
        </mxCell>
        <mxCell id="qts4YIKVwKViADoNBH5a-124" style="rounded=0;orthogonalLoop=1;jettySize=auto;html=1;exitX=1;exitY=1;exitDx=0;exitDy=0;entryX=0;entryY=0;entryDx=0;entryDy=0;endArrow=none;endFill=0;strokeColor=#B3B3B3;strokeWidth=2;" parent="1" source="qts4YIKVwKViADoNBH5a-64" target="qts4YIKVwKViADoNBH5a-111" edge="1">
          <mxGeometry relative="1" as="geometry" />
        </mxCell>
        <mxCell id="A3WCrJtBJiMgD0JYCP4l-48" value="" style="rounded=1;whiteSpace=wrap;html=1;strokeWidth=5;strokeColor=none;gradientColor=none;fillStyle=solid;fillColor=#FFBA08;" parent="1" vertex="1">
          <mxGeometry x="130" y="1250" width="450" height="450" as="geometry" />
        </mxCell>
        <mxCell id="A3WCrJtBJiMgD0JYCP4l-49" style="edgeStyle=none;rounded=0;orthogonalLoop=1;jettySize=auto;html=1;exitX=1;exitY=0.5;exitDx=0;exitDy=0;entryX=0;entryY=0.5;entryDx=0;entryDy=0;endArrow=none;endFill=0;strokeColor=#B97502;strokeWidth=2;" parent="1" source="A3WCrJtBJiMgD0JYCP4l-51" target="A3WCrJtBJiMgD0JYCP4l-63" edge="1">
          <mxGeometry relative="1" as="geometry" />
        </mxCell>
        <mxCell id="A3WCrJtBJiMgD0JYCP4l-50" style="edgeStyle=none;rounded=0;orthogonalLoop=1;jettySize=auto;html=1;exitX=1;exitY=0;exitDx=0;exitDy=0;entryX=0;entryY=0.5;entryDx=0;entryDy=0;endArrow=none;endFill=0;strokeColor=#B97502;strokeWidth=2;" parent="1" source="A3WCrJtBJiMgD0JYCP4l-51" target="A3WCrJtBJiMgD0JYCP4l-59" edge="1">
          <mxGeometry relative="1" as="geometry" />
        </mxCell>
        <mxCell id="A3WCrJtBJiMgD0JYCP4l-51" value="" style="ellipse;whiteSpace=wrap;html=1;aspect=fixed;fillStyle=solid;fillColor=#DC2F02;strokeColor=#DC2F02;" parent="1" vertex="1">
          <mxGeometry x="220" y="1400" width="30" height="30" as="geometry" />
        </mxCell>
        <mxCell id="A3WCrJtBJiMgD0JYCP4l-52" style="edgeStyle=none;rounded=0;orthogonalLoop=1;jettySize=auto;html=1;exitX=0.854;exitY=0.181;exitDx=0;exitDy=0;entryX=0.143;entryY=0.77;entryDx=0;entryDy=0;endArrow=none;endFill=0;strokeWidth=12;exitPerimeter=0;entryPerimeter=0;strokeColor=#DC2F02;" parent="1" source="A3WCrJtBJiMgD0JYCP4l-54" target="A3WCrJtBJiMgD0JYCP4l-51" edge="1">
          <mxGeometry relative="1" as="geometry" />
        </mxCell>
        <mxCell id="A3WCrJtBJiMgD0JYCP4l-53" style="edgeStyle=none;rounded=0;orthogonalLoop=1;jettySize=auto;html=1;exitX=0.861;exitY=0.815;exitDx=0;exitDy=0;entryX=0.124;entryY=0.2;entryDx=0;entryDy=0;endArrow=none;endFill=0;strokeWidth=12;exitPerimeter=0;entryPerimeter=0;strokeColor=#DC2F02;" parent="1" source="A3WCrJtBJiMgD0JYCP4l-54" target="A3WCrJtBJiMgD0JYCP4l-58" edge="1">
          <mxGeometry relative="1" as="geometry" />
        </mxCell>
        <mxCell id="A3WCrJtBJiMgD0JYCP4l-54" value="" style="ellipse;whiteSpace=wrap;html=1;aspect=fixed;fillStyle=solid;fillColor=#DC2F02;strokeColor=#DC2F02;" parent="1" vertex="1">
          <mxGeometry x="140" y="1460" width="30" height="30" as="geometry" />
        </mxCell>
        <mxCell id="A3WCrJtBJiMgD0JYCP4l-55" style="edgeStyle=none;rounded=0;orthogonalLoop=1;jettySize=auto;html=1;exitX=1;exitY=1;exitDx=0;exitDy=0;entryX=0;entryY=0.5;entryDx=0;entryDy=0;endArrow=none;endFill=0;strokeColor=#B97502;strokeWidth=2;" parent="1" source="A3WCrJtBJiMgD0JYCP4l-58" target="A3WCrJtBJiMgD0JYCP4l-61" edge="1">
          <mxGeometry relative="1" as="geometry" />
        </mxCell>
        <mxCell id="A3WCrJtBJiMgD0JYCP4l-56" style="rounded=0;orthogonalLoop=1;jettySize=auto;html=1;exitX=1;exitY=0.5;exitDx=0;exitDy=0;entryX=0;entryY=0.5;entryDx=0;entryDy=0;endArrow=none;endFill=0;strokeColor=#B97502;strokeWidth=2;" parent="1" source="A3WCrJtBJiMgD0JYCP4l-58" target="A3WCrJtBJiMgD0JYCP4l-84" edge="1">
          <mxGeometry relative="1" as="geometry" />
        </mxCell>
        <mxCell id="A3WCrJtBJiMgD0JYCP4l-57" style="rounded=0;orthogonalLoop=1;jettySize=auto;html=1;exitX=1;exitY=0;exitDx=0;exitDy=0;entryX=0;entryY=1;entryDx=0;entryDy=0;endArrow=none;endFill=0;strokeColor=#B97502;strokeWidth=2;" parent="1" source="A3WCrJtBJiMgD0JYCP4l-58" target="A3WCrJtBJiMgD0JYCP4l-63" edge="1">
          <mxGeometry relative="1" as="geometry" />
        </mxCell>
        <mxCell id="A3WCrJtBJiMgD0JYCP4l-58" value="" style="ellipse;whiteSpace=wrap;html=1;aspect=fixed;fillStyle=solid;fillColor=#DC2F02;strokeColor=#DC2F02;" parent="1" vertex="1">
          <mxGeometry x="220" y="1520" width="30" height="30" as="geometry" />
        </mxCell>
        <mxCell id="A3WCrJtBJiMgD0JYCP4l-59" value="" style="ellipse;whiteSpace=wrap;html=1;aspect=fixed;strokeColor=#B97502;strokeWidth=2;fillStyle=solid;fillColor=#B97502;" parent="1" vertex="1">
          <mxGeometry x="300" y="1340" width="30" height="30" as="geometry" />
        </mxCell>
        <mxCell id="A3WCrJtBJiMgD0JYCP4l-60" style="rounded=0;orthogonalLoop=1;jettySize=auto;html=1;exitX=1;exitY=0;exitDx=0;exitDy=0;entryX=0;entryY=1;entryDx=0;entryDy=0;endArrow=none;endFill=0;strokeColor=#B97502;strokeWidth=2;" parent="1" source="A3WCrJtBJiMgD0JYCP4l-61" target="A3WCrJtBJiMgD0JYCP4l-87" edge="1">
          <mxGeometry relative="1" as="geometry" />
        </mxCell>
        <mxCell id="A3WCrJtBJiMgD0JYCP4l-61" value="" style="ellipse;whiteSpace=wrap;html=1;aspect=fixed;fillStyle=solid;fillColor=#DC2F02;strokeColor=#DC2F02;" parent="1" vertex="1">
          <mxGeometry x="300" y="1580" width="30" height="30" as="geometry" />
        </mxCell>
        <mxCell id="A3WCrJtBJiMgD0JYCP4l-62" style="rounded=0;orthogonalLoop=1;jettySize=auto;html=1;exitX=1;exitY=1;exitDx=0;exitDy=0;entryX=0;entryY=0;entryDx=0;entryDy=0;endArrow=none;endFill=0;strokeColor=#B97502;strokeWidth=2;" parent="1" source="A3WCrJtBJiMgD0JYCP4l-63" target="A3WCrJtBJiMgD0JYCP4l-87" edge="1">
          <mxGeometry relative="1" as="geometry" />
        </mxCell>
        <mxCell id="A3WCrJtBJiMgD0JYCP4l-63" value="" style="ellipse;whiteSpace=wrap;html=1;aspect=fixed;strokeColor=#B97502;strokeWidth=2;fillStyle=solid;fillColor=#B97502;" parent="1" vertex="1">
          <mxGeometry x="300" y="1420" width="30" height="30" as="geometry" />
        </mxCell>
        <mxCell id="A3WCrJtBJiMgD0JYCP4l-64" style="edgeStyle=none;rounded=0;orthogonalLoop=1;jettySize=auto;html=1;exitX=1;exitY=1;exitDx=0;exitDy=0;entryX=0;entryY=0;entryDx=0;entryDy=0;endArrow=none;endFill=0;strokeColor=#B97502;strokeWidth=2;" parent="1" source="A3WCrJtBJiMgD0JYCP4l-59" target="A3WCrJtBJiMgD0JYCP4l-75" edge="1">
          <mxGeometry relative="1" as="geometry">
            <mxPoint x="320" y="1366" as="sourcePoint" />
          </mxGeometry>
        </mxCell>
        <mxCell id="A3WCrJtBJiMgD0JYCP4l-65" style="edgeStyle=none;rounded=0;orthogonalLoop=1;jettySize=auto;html=1;exitX=1;exitY=0.5;exitDx=0;exitDy=0;entryX=0;entryY=0.5;entryDx=0;entryDy=0;endArrow=none;endFill=0;strokeColor=#B97502;strokeWidth=2;" parent="1" source="A3WCrJtBJiMgD0JYCP4l-59" target="A3WCrJtBJiMgD0JYCP4l-70" edge="1">
          <mxGeometry relative="1" as="geometry">
            <mxPoint x="320" y="1366" as="sourcePoint" />
          </mxGeometry>
        </mxCell>
        <mxCell id="A3WCrJtBJiMgD0JYCP4l-66" style="edgeStyle=none;rounded=0;orthogonalLoop=1;jettySize=auto;html=1;exitX=1;exitY=0.5;exitDx=0;exitDy=0;entryX=0;entryY=0.5;entryDx=0;entryDy=0;endArrow=none;endFill=0;strokeColor=#B97502;strokeWidth=2;" parent="1" source="A3WCrJtBJiMgD0JYCP4l-61" target="A3WCrJtBJiMgD0JYCP4l-72" edge="1">
          <mxGeometry relative="1" as="geometry">
            <mxPoint x="320" y="1484" as="sourcePoint" />
          </mxGeometry>
        </mxCell>
        <mxCell id="A3WCrJtBJiMgD0JYCP4l-67" style="edgeStyle=none;rounded=0;orthogonalLoop=1;jettySize=auto;html=1;exitX=1;exitY=0;exitDx=0;exitDy=0;entryX=0;entryY=1;entryDx=0;entryDy=0;endArrow=none;endFill=0;strokeColor=#B97502;strokeWidth=2;" parent="1" source="A3WCrJtBJiMgD0JYCP4l-63" target="A3WCrJtBJiMgD0JYCP4l-70" edge="1">
          <mxGeometry relative="1" as="geometry">
            <mxPoint x="324" y="1425" as="sourcePoint" />
          </mxGeometry>
        </mxCell>
        <mxCell id="A3WCrJtBJiMgD0JYCP4l-68" style="edgeStyle=none;rounded=0;orthogonalLoop=1;jettySize=auto;html=1;exitX=1;exitY=0.5;exitDx=0;exitDy=0;endArrow=none;endFill=0;entryX=0;entryY=0.5;entryDx=0;entryDy=0;strokeColor=#B97502;strokeWidth=2;" parent="1" source="A3WCrJtBJiMgD0JYCP4l-63" target="A3WCrJtBJiMgD0JYCP4l-75" edge="1">
          <mxGeometry relative="1" as="geometry">
            <mxPoint x="364" y="1424.857142857143" as="targetPoint" />
            <mxPoint x="324" y="1425" as="sourcePoint" />
          </mxGeometry>
        </mxCell>
        <mxCell id="A3WCrJtBJiMgD0JYCP4l-69" style="edgeStyle=none;rounded=0;orthogonalLoop=1;jettySize=auto;html=1;exitX=1;exitY=0.5;exitDx=0;exitDy=0;entryX=0;entryY=0;entryDx=0;entryDy=0;endArrow=none;endFill=0;strokeColor=#B97502;strokeWidth=2;" parent="1" source="A3WCrJtBJiMgD0JYCP4l-70" target="A3WCrJtBJiMgD0JYCP4l-77" edge="1">
          <mxGeometry relative="1" as="geometry" />
        </mxCell>
        <mxCell id="A3WCrJtBJiMgD0JYCP4l-70" value="" style="ellipse;whiteSpace=wrap;html=1;aspect=fixed;fillStyle=solid;fillColor=#DC2F02;strokeColor=#DC2F02;" parent="1" vertex="1">
          <mxGeometry x="380" y="1340" width="30" height="30" as="geometry" />
        </mxCell>
        <mxCell id="A3WCrJtBJiMgD0JYCP4l-71" style="edgeStyle=none;rounded=0;orthogonalLoop=1;jettySize=auto;html=1;exitX=1;exitY=0.5;exitDx=0;exitDy=0;entryX=0;entryY=1;entryDx=0;entryDy=0;endArrow=none;endFill=0;strokeColor=#B97502;strokeWidth=2;" parent="1" source="A3WCrJtBJiMgD0JYCP4l-72" target="A3WCrJtBJiMgD0JYCP4l-79" edge="1">
          <mxGeometry relative="1" as="geometry" />
        </mxCell>
        <mxCell id="A3WCrJtBJiMgD0JYCP4l-72" value="" style="ellipse;whiteSpace=wrap;html=1;aspect=fixed;strokeColor=#B97502;strokeWidth=2;fillStyle=solid;fillColor=#B97502;" parent="1" vertex="1">
          <mxGeometry x="380" y="1580" width="30" height="30" as="geometry" />
        </mxCell>
        <mxCell id="A3WCrJtBJiMgD0JYCP4l-73" style="edgeStyle=none;rounded=0;orthogonalLoop=1;jettySize=auto;html=1;exitX=1;exitY=0.5;exitDx=0;exitDy=0;entryX=0;entryY=0.5;entryDx=0;entryDy=0;endArrow=none;endFill=0;strokeColor=#B97502;strokeWidth=2;" parent="1" source="A3WCrJtBJiMgD0JYCP4l-75" target="A3WCrJtBJiMgD0JYCP4l-77" edge="1">
          <mxGeometry relative="1" as="geometry" />
        </mxCell>
        <mxCell id="A3WCrJtBJiMgD0JYCP4l-74" style="rounded=0;orthogonalLoop=1;jettySize=auto;html=1;exitX=1;exitY=1;exitDx=0;exitDy=0;entryX=0;entryY=0;entryDx=0;entryDy=0;endArrow=none;endFill=0;strokeColor=#B97502;strokeWidth=2;" parent="1" source="A3WCrJtBJiMgD0JYCP4l-75" target="A3WCrJtBJiMgD0JYCP4l-79" edge="1">
          <mxGeometry relative="1" as="geometry" />
        </mxCell>
        <mxCell id="A3WCrJtBJiMgD0JYCP4l-75" value="" style="ellipse;whiteSpace=wrap;html=1;aspect=fixed;strokeColor=#B97502;strokeWidth=2;fillStyle=solid;fillColor=#B97502;" parent="1" vertex="1">
          <mxGeometry x="380" y="1420" width="30" height="30" as="geometry" />
        </mxCell>
        <mxCell id="A3WCrJtBJiMgD0JYCP4l-76" style="edgeStyle=none;rounded=0;orthogonalLoop=1;jettySize=auto;html=1;exitX=0.872;exitY=0.788;exitDx=0;exitDy=0;endArrow=none;endFill=0;strokeWidth=12;exitPerimeter=0;strokeColor=#DC2F02;" parent="1" source="A3WCrJtBJiMgD0JYCP4l-77" target="A3WCrJtBJiMgD0JYCP4l-80" edge="1">
          <mxGeometry relative="1" as="geometry" />
        </mxCell>
        <mxCell id="A3WCrJtBJiMgD0JYCP4l-77" value="" style="ellipse;whiteSpace=wrap;html=1;aspect=fixed;fillStyle=solid;fillColor=#DC2F02;strokeColor=#DC2F02;" parent="1" vertex="1">
          <mxGeometry x="460" y="1400" width="30" height="30" as="geometry" />
        </mxCell>
        <mxCell id="A3WCrJtBJiMgD0JYCP4l-78" style="edgeStyle=none;rounded=0;orthogonalLoop=1;jettySize=auto;html=1;exitX=0.859;exitY=0.21;exitDx=0;exitDy=0;endArrow=none;endFill=0;strokeWidth=12;exitPerimeter=0;strokeColor=#DC2F02;" parent="1" source="A3WCrJtBJiMgD0JYCP4l-79" target="A3WCrJtBJiMgD0JYCP4l-80" edge="1">
          <mxGeometry relative="1" as="geometry">
            <mxPoint x="550" y="1470" as="targetPoint" />
          </mxGeometry>
        </mxCell>
        <mxCell id="A3WCrJtBJiMgD0JYCP4l-79" value="" style="ellipse;whiteSpace=wrap;html=1;aspect=fixed;fillColor=#DC2F02;fillStyle=solid;strokeColor=#DC2F02;" parent="1" vertex="1">
          <mxGeometry x="460" y="1520" width="30" height="30" as="geometry" />
        </mxCell>
        <mxCell id="A3WCrJtBJiMgD0JYCP4l-80" value="" style="ellipse;whiteSpace=wrap;html=1;aspect=fixed;fillColor=#DC2F02;fillStyle=solid;strokeColor=#DC2F02;" parent="1" vertex="1">
          <mxGeometry x="540" y="1460" width="30" height="30" as="geometry" />
        </mxCell>
        <mxCell id="A3WCrJtBJiMgD0JYCP4l-81" style="rounded=0;orthogonalLoop=1;jettySize=auto;html=1;exitX=1;exitY=0.5;exitDx=0;exitDy=0;entryX=0;entryY=0.5;entryDx=0;entryDy=0;endArrow=none;endFill=0;strokeColor=#B97502;strokeWidth=2;" parent="1" source="A3WCrJtBJiMgD0JYCP4l-84" target="A3WCrJtBJiMgD0JYCP4l-87" edge="1">
          <mxGeometry relative="1" as="geometry" />
        </mxCell>
        <mxCell id="A3WCrJtBJiMgD0JYCP4l-82" style="rounded=0;orthogonalLoop=1;jettySize=auto;html=1;exitX=1;exitY=0;exitDx=0;exitDy=0;entryX=0;entryY=1;entryDx=0;entryDy=0;endArrow=none;endFill=0;strokeColor=#B97502;strokeWidth=2;" parent="1" source="A3WCrJtBJiMgD0JYCP4l-84" target="A3WCrJtBJiMgD0JYCP4l-75" edge="1">
          <mxGeometry relative="1" as="geometry" />
        </mxCell>
        <mxCell id="A3WCrJtBJiMgD0JYCP4l-83" style="rounded=0;orthogonalLoop=1;jettySize=auto;html=1;exitX=1;exitY=1;exitDx=0;exitDy=0;entryX=0;entryY=0;entryDx=0;entryDy=0;endArrow=none;endFill=0;strokeColor=#B97502;strokeWidth=2;" parent="1" source="A3WCrJtBJiMgD0JYCP4l-84" target="A3WCrJtBJiMgD0JYCP4l-72" edge="1">
          <mxGeometry relative="1" as="geometry" />
        </mxCell>
        <mxCell id="A3WCrJtBJiMgD0JYCP4l-84" value="" style="ellipse;whiteSpace=wrap;html=1;aspect=fixed;strokeColor=#B97502;strokeWidth=2;fillStyle=solid;fillColor=#B97502;" parent="1" vertex="1">
          <mxGeometry x="300" y="1500" width="30" height="30" as="geometry" />
        </mxCell>
        <mxCell id="A3WCrJtBJiMgD0JYCP4l-85" style="rounded=0;orthogonalLoop=1;jettySize=auto;html=1;exitX=1;exitY=0.5;exitDx=0;exitDy=0;entryX=0;entryY=0.5;entryDx=0;entryDy=0;endArrow=none;endFill=0;strokeColor=#B97502;strokeWidth=2;" parent="1" source="A3WCrJtBJiMgD0JYCP4l-87" target="A3WCrJtBJiMgD0JYCP4l-79" edge="1">
          <mxGeometry relative="1" as="geometry" />
        </mxCell>
        <mxCell id="A3WCrJtBJiMgD0JYCP4l-86" style="rounded=0;orthogonalLoop=1;jettySize=auto;html=1;exitX=1;exitY=0;exitDx=0;exitDy=0;entryX=0;entryY=1;entryDx=0;entryDy=0;endArrow=none;endFill=0;strokeColor=#B97502;strokeWidth=2;" parent="1" source="A3WCrJtBJiMgD0JYCP4l-87" target="A3WCrJtBJiMgD0JYCP4l-77" edge="1">
          <mxGeometry relative="1" as="geometry" />
        </mxCell>
        <mxCell id="A3WCrJtBJiMgD0JYCP4l-87" value="" style="ellipse;whiteSpace=wrap;html=1;aspect=fixed;strokeColor=#B97502;strokeWidth=2;fillStyle=solid;fillColor=#B97502;" parent="1" vertex="1">
          <mxGeometry x="380" y="1500" width="30" height="30" as="geometry" />
        </mxCell>
        <mxCell id="A3WCrJtBJiMgD0JYCP4l-88" style="rounded=0;orthogonalLoop=1;jettySize=auto;html=1;exitX=1;exitY=1;exitDx=0;exitDy=0;entryX=0;entryY=0;entryDx=0;entryDy=0;endArrow=none;endFill=0;strokeColor=#B97502;strokeWidth=2;" parent="1" source="A3WCrJtBJiMgD0JYCP4l-51" target="A3WCrJtBJiMgD0JYCP4l-84" edge="1">
          <mxGeometry relative="1" as="geometry" />
        </mxCell>
        <mxCell id="A3WCrJtBJiMgD0JYCP4l-89" style="rounded=0;orthogonalLoop=1;jettySize=auto;html=1;exitX=0.7;exitY=0.059;exitDx=0;exitDy=0;entryX=0.34;entryY=0.837;entryDx=0;entryDy=0;endArrow=none;endFill=0;strokeWidth=12;entryPerimeter=0;exitPerimeter=0;strokeColor=#DC2F02;" parent="1" source="A3WCrJtBJiMgD0JYCP4l-61" target="A3WCrJtBJiMgD0JYCP4l-70" edge="1">
          <mxGeometry relative="1" as="geometry" />
        </mxCell>
        <mxCell id="qts4YIKVwKViADoNBH5a-64" value="" style="ellipse;whiteSpace=wrap;html=1;aspect=fixed;fillStyle=solid;fillColor=#4D4D4D;strokeColor=#4D4D4D;strokeWidth=5;" parent="1" vertex="1">
          <mxGeometry x="210" y="870" width="30" height="30" as="geometry" />
        </mxCell>
        <mxCell id="qts4YIKVwKViADoNBH5a-68" value="" style="ellipse;whiteSpace=wrap;html=1;aspect=fixed;fillStyle=solid;fillColor=#4D4D4D;strokeColor=#4D4D4D;strokeWidth=5;" parent="1" vertex="1">
          <mxGeometry x="130" y="930" width="30" height="30" as="geometry" />
        </mxCell>
        <mxCell id="qts4YIKVwKViADoNBH5a-72" value="" style="ellipse;whiteSpace=wrap;html=1;aspect=fixed;fillStyle=solid;fillColor=#4D4D4D;strokeColor=#4D4D4D;strokeWidth=5;" parent="1" vertex="1">
          <mxGeometry x="210" y="990" width="30" height="30" as="geometry" />
        </mxCell>
        <mxCell id="qts4YIKVwKViADoNBH5a-78" value="" style="ellipse;whiteSpace=wrap;html=1;aspect=fixed;fillStyle=solid;fillColor=#4D4D4D;strokeColor=#4D4D4D;strokeWidth=5;" parent="1" vertex="1">
          <mxGeometry x="290" y="1050" width="30" height="30" as="geometry" />
        </mxCell>
        <mxCell id="qts4YIKVwKViADoNBH5a-92" value="" style="ellipse;whiteSpace=wrap;html=1;aspect=fixed;fillStyle=solid;fillColor=#4D4D4D;strokeColor=#4D4D4D;strokeWidth=5;" parent="1" vertex="1">
          <mxGeometry x="370" y="810" width="30" height="30" as="geometry" />
        </mxCell>
        <mxCell id="qts4YIKVwKViADoNBH5a-102" value="" style="ellipse;whiteSpace=wrap;html=1;aspect=fixed;fillStyle=solid;fillColor=#4D4D4D;strokeColor=#4D4D4D;strokeWidth=5;" parent="1" vertex="1">
          <mxGeometry x="450" y="870" width="30" height="30" as="geometry" />
        </mxCell>
        <mxCell id="qts4YIKVwKViADoNBH5a-104" value="" style="ellipse;whiteSpace=wrap;html=1;aspect=fixed;fillColor=#4D4D4D;fillStyle=solid;strokeColor=#4D4D4D;strokeWidth=5;" parent="1" vertex="1">
          <mxGeometry x="450" y="990" width="30" height="30" as="geometry" />
        </mxCell>
        <mxCell id="qts4YIKVwKViADoNBH5a-107" value="" style="ellipse;whiteSpace=wrap;html=1;aspect=fixed;fillColor=#4D4D4D;fillStyle=solid;strokeColor=#4D4D4D;strokeWidth=5;" parent="1" vertex="1">
          <mxGeometry x="530" y="930" width="30" height="30" as="geometry" />
        </mxCell>
        <mxCell id="qts4YIKVwKViADoNBH5a-122" style="rounded=0;orthogonalLoop=1;jettySize=auto;html=1;exitX=0.7;exitY=0.059;exitDx=0;exitDy=0;entryX=0.34;entryY=0.837;entryDx=0;entryDy=0;endArrow=none;endFill=0;strokeWidth=15;entryPerimeter=0;exitPerimeter=0;strokeColor=#4D4D4D;" parent="1" source="qts4YIKVwKViADoNBH5a-78" target="qts4YIKVwKViADoNBH5a-92" edge="1">
          <mxGeometry relative="1" as="geometry" />
        </mxCell>
        <mxCell id="qts4YIKVwKViADoNBH5a-101" style="edgeStyle=none;rounded=0;orthogonalLoop=1;jettySize=auto;html=1;exitX=0.872;exitY=0.788;exitDx=0;exitDy=0;endArrow=none;endFill=0;strokeWidth=15;exitPerimeter=0;strokeColor=#4D4D4D;" parent="1" source="qts4YIKVwKViADoNBH5a-102" target="qts4YIKVwKViADoNBH5a-107" edge="1">
          <mxGeometry relative="1" as="geometry" />
        </mxCell>
        <mxCell id="qts4YIKVwKViADoNBH5a-103" style="edgeStyle=none;rounded=0;orthogonalLoop=1;jettySize=auto;html=1;exitX=0.859;exitY=0.21;exitDx=0;exitDy=0;endArrow=none;endFill=0;strokeWidth=15;exitPerimeter=0;strokeColor=#4D4D4D;" parent="1" source="qts4YIKVwKViADoNBH5a-104" target="qts4YIKVwKViADoNBH5a-107" edge="1">
          <mxGeometry relative="1" as="geometry">
            <mxPoint x="540" y="940" as="targetPoint" />
          </mxGeometry>
        </mxCell>
        <mxCell id="qts4YIKVwKViADoNBH5a-65" style="edgeStyle=none;rounded=0;orthogonalLoop=1;jettySize=auto;html=1;exitX=0.854;exitY=0.181;exitDx=0;exitDy=0;entryX=0.143;entryY=0.77;entryDx=0;entryDy=0;endArrow=none;endFill=0;strokeWidth=15;exitPerimeter=0;entryPerimeter=0;strokeColor=#4D4D4D;" parent="1" source="qts4YIKVwKViADoNBH5a-68" target="qts4YIKVwKViADoNBH5a-64" edge="1">
          <mxGeometry relative="1" as="geometry" />
        </mxCell>
        <mxCell id="qts4YIKVwKViADoNBH5a-67" style="edgeStyle=none;rounded=0;orthogonalLoop=1;jettySize=auto;html=1;exitX=0.861;exitY=0.815;exitDx=0;exitDy=0;entryX=0.124;entryY=0.2;entryDx=0;entryDy=0;endArrow=none;endFill=0;strokeWidth=15;exitPerimeter=0;entryPerimeter=0;strokeColor=#4D4D4D;" parent="1" source="qts4YIKVwKViADoNBH5a-68" target="qts4YIKVwKViADoNBH5a-72" edge="1">
          <mxGeometry relative="1" as="geometry" />
        </mxCell>
      </root>
    </mxGraphModel>
  </diagram>
</mxfile>
